<svg xmlns="http://www.w3.org/2000/svg" version="1.1" xmlns:xlink="http://www.w3.org/1999/xlink" width="1000" height="1000"><g clip-path="url(#SvgjsClipPath1017)"><rect width="1000" height="1000" fill="#ffffff"></rect><g transform="matrix(1.4,0,0,1.4,150,360)"><svg xmlns="http://www.w3.org/2000/svg" version="1.1" xmlns:xlink="http://www.w3.org/1999/xlink" width="500" height="200"><svg xmlns="http://www.w3.org/2000/svg" xmlns:xlink="http://www.w3.org/1999/xlink" width="500" zoomAndPan="magnify" viewBox="0 0 375 149.999998" height="200" preserveAspectRatio="xMidYMid meet" version="1.0"><defs><g></g><clipPath id="3704452872"><rect x="0" width="355" y="0" height="122"></rect></clipPath><clipPath id="df88ef691d"><path d="M 357.4375 109.582031 L 366.996094 109.582031 L 366.996094 119.144531 L 357.4375 119.144531 Z M 357.4375 109.582031 " clip-rule="nonzero"></path></clipPath><clipPath id="d9b8eca4ef"><path d="M 362.21875 109.582031 C 359.578125 109.582031 357.4375 111.722656 357.4375 114.363281 C 357.4375 117.003906 359.578125 119.144531 362.21875 119.144531 C 364.859375 119.144531 366.996094 117.003906 366.996094 114.363281 C 366.996094 111.722656 364.859375 109.582031 362.21875 109.582031 Z M 362.21875 109.582031 " clip-rule="nonzero"></path></clipPath><clipPath id="6bb8da75db"><path d="M 0.4375 0.582031 L 9.996094 0.582031 L 9.996094 10.144531 L 0.4375 10.144531 Z M 0.4375 0.582031 " clip-rule="nonzero"></path></clipPath><clipPath id="ee4c96947f"><path d="M 5.21875 0.582031 C 2.578125 0.582031 0.4375 2.722656 0.4375 5.363281 C 0.4375 8.003906 2.578125 10.144531 5.21875 10.144531 C 7.859375 10.144531 9.996094 8.003906 9.996094 5.363281 C 9.996094 2.722656 7.859375 0.582031 5.21875 0.582031 Z M 5.21875 0.582031 " clip-rule="nonzero"></path></clipPath><clipPath id="685b6f6063"><rect x="0" width="10" y="0" height="11"></rect></clipPath><clipPath id="SvgjsClipPath1017"><rect width="1000" height="1000" x="0" y="0" rx="350" ry="350"></rect></clipPath></defs><g transform="matrix(1, 0, 0, 1, 5, 24)"><g clip-path="url(#3704452872)"><g fill="#1b1b1b" fill-opacity="1"><g transform="translate(2.117925, 94.892776)"><g><path d="M 79.46875 -72.78125 C 79.46875 -72.457031 79.304688 -72.140625 78.984375 -71.828125 C 77.710938 -70.316406 76.378906 -68.820312 74.984375 -67.34375 C 73.597656 -65.875 72.226562 -64.382812 70.875 -62.875 C 70.71875 -62.71875 70.519531 -62.539062 70.28125 -62.34375 C 70.039062 -62.144531 69.757812 -61.960938 69.4375 -61.796875 C 68.644531 -61.566406 67.726562 -61.96875 66.6875 -63 C 65.65625 -64.03125 64.863281 -64.785156 64.3125 -65.265625 C 61.6875 -67.171875 58.898438 -68.757812 55.953125 -70.03125 C 53.015625 -71.3125 49.875 -71.953125 46.53125 -71.953125 L 46.171875 -71.953125 C 39.804688 -71.867188 34.257812 -70.132812 29.53125 -66.75 C 24.800781 -63.375 21.359375 -58.703125 19.203125 -52.734375 C 18.253906 -50.109375 17.859375 -47.222656 18.015625 -44.078125 C 18.171875 -40.941406 18.785156 -37.84375 19.859375 -34.78125 C 20.929688 -31.71875 22.382812 -28.929688 24.21875 -26.421875 C 26.050781 -23.921875 28.160156 -21.914062 30.546875 -20.40625 C 34.765625 -17.78125 39.695312 -16.46875 45.34375 -16.46875 C 49.3125 -16.46875 52.925781 -17.101562 56.1875 -18.375 C 59.457031 -19.644531 62.125 -21.4375 64.1875 -23.75 C 65.300781 -25.09375 66.332031 -25.941406 67.28125 -26.296875 C 68.238281 -26.660156 69.394531 -26.207031 70.75 -24.9375 C 72.019531 -23.738281 73.234375 -22.484375 74.390625 -21.171875 C 75.546875 -19.859375 76.640625 -18.53125 77.671875 -17.1875 C 77.828125 -16.863281 78.003906 -16.5625 78.203125 -16.28125 C 78.398438 -16.007812 78.539062 -15.671875 78.625 -15.265625 C 78.945312 -14.078125 78.550781 -12.960938 77.4375 -11.921875 C 76.320312 -10.890625 75.023438 -9.992188 73.546875 -9.234375 C 72.078125 -8.484375 70.945312 -7.867188 70.15625 -7.390625 C 66.5 -5.085938 62.484375 -3.300781 58.109375 -2.03125 C 53.734375 -0.757812 49.195312 -0.125 44.5 -0.125 C 38.21875 -0.125 32.628906 -1.035156 27.734375 -2.859375 C 22.847656 -4.691406 18.671875 -7.097656 15.203125 -10.078125 C 11.742188 -13.066406 8.921875 -16.328125 6.734375 -19.859375 C 4.546875 -23.398438 2.976562 -26.921875 2.03125 -30.421875 C -0.0390625 -37.984375 -0.5 -45.320312 0.65625 -52.4375 C 1.8125 -59.550781 4.535156 -65.894531 8.828125 -71.46875 C 12.890625 -76.875 17.976562 -81.066406 24.09375 -84.046875 C 30.21875 -87.035156 36.78125 -88.53125 43.78125 -88.53125 L 44.140625 -88.53125 C 49.234375 -88.53125 54.222656 -87.832031 59.109375 -86.4375 C 64.003906 -85.050781 68.519531 -82.84375 72.65625 -79.8125 C 73.289062 -79.34375 74.125 -78.726562 75.15625 -77.96875 C 76.195312 -77.21875 77.15625 -76.40625 78.03125 -75.53125 C 78.90625 -74.65625 79.382812 -73.738281 79.46875 -72.78125 Z M 79.46875 -72.78125 "></path></g></g></g><g fill="#1b1b1b" fill-opacity="1"><g transform="translate(81.809765, 94.892776)"><g><path d="M 0.125 -34.59375 C 0.0390625 -39.050781 0.910156 -43.488281 2.734375 -47.90625 C 4.566406 -52.320312 7.113281 -56.195312 10.375 -59.53125 C 13.476562 -62.71875 17.019531 -65.144531 21 -66.8125 C 24.976562 -68.488281 29.070312 -69.328125 33.28125 -69.328125 C 33.6875 -69.328125 34.109375 -69.328125 34.546875 -69.328125 C 34.984375 -69.328125 35.398438 -69.328125 35.796875 -69.328125 C 35.796875 -69.328125 35.8125 -69.328125 35.84375 -69.328125 C 35.882812 -69.328125 35.90625 -69.328125 35.90625 -69.328125 C 42.832031 -69.328125 48.9375 -67.894531 54.21875 -65.03125 C 59.507812 -62.164062 63.664062 -58.1875 66.6875 -53.09375 C 69.71875 -48 71.234375 -42.113281 71.234375 -35.4375 C 71.234375 -25.019531 67.972656 -16.546875 61.453125 -10.015625 C 58.265625 -6.835938 54.460938 -4.394531 50.046875 -2.6875 C 45.640625 -0.976562 40.847656 -0.125 35.671875 -0.125 C 30.742188 -0.125 26.148438 -1.015625 21.890625 -2.796875 C 17.640625 -4.585938 13.898438 -7.054688 10.671875 -10.203125 C 7.453125 -13.347656 4.90625 -17.003906 3.03125 -21.171875 C 1.164062 -25.347656 0.195312 -29.820312 0.125 -34.59375 Z M 35.3125 -55.125 C 32.53125 -55.125 29.828125 -54.226562 27.203125 -52.4375 C 24.578125 -50.644531 22.410156 -48.335938 20.703125 -45.515625 C 18.992188 -42.691406 18.097656 -39.726562 18.015625 -36.625 C 17.929688 -33.207031 18.484375 -29.90625 19.671875 -26.71875 C 20.867188 -23.539062 22.703125 -20.878906 25.171875 -18.734375 C 27.640625 -16.585938 30.703125 -15.316406 34.359375 -14.921875 C 38.421875 -14.515625 41.84375 -15.144531 44.625 -16.8125 C 47.40625 -18.488281 49.550781 -20.773438 51.0625 -23.671875 C 52.570312 -26.578125 53.40625 -29.757812 53.5625 -33.21875 C 53.726562 -36.6875 53.210938 -40.007812 52.015625 -43.1875 C 50.828125 -46.375 48.921875 -49.0625 46.296875 -51.25 C 43.671875 -53.4375 40.328125 -54.726562 36.265625 -55.125 C 36.109375 -55.125 35.953125 -55.125 35.796875 -55.125 C 35.640625 -55.125 35.476562 -55.125 35.3125 -55.125 Z M 35.3125 -55.125 "></path></g></g></g><g fill="#1b1b1b" fill-opacity="1"><g transform="translate(153.269785, 94.892776)"><g><path d="M 4.890625 -16.46875 C 2.347656 -21.082031 0.816406 -25.773438 0.296875 -30.546875 C -0.222656 -35.316406 0.113281 -39.910156 1.3125 -44.328125 C 2.507812 -48.742188 4.316406 -52.703125 6.734375 -56.203125 C 9.160156 -59.703125 12.003906 -62.441406 15.265625 -64.421875 C 19.722656 -67.128906 24.695312 -68.484375 30.1875 -68.484375 C 31.300781 -68.484375 32.710938 -68.242188 34.421875 -67.765625 C 36.128906 -67.285156 37.914062 -66.785156 39.78125 -66.265625 C 41.65625 -65.753906 43.445312 -65.457031 45.15625 -65.375 C 46.863281 -65.300781 48.3125 -65.617188 49.5 -66.328125 C 50.695312 -67.046875 51.457031 -68.398438 51.78125 -70.390625 C 52.175781 -73.253906 52.253906 -76.359375 52.015625 -79.703125 C 51.773438 -83.046875 51.578125 -86.1875 51.421875 -89.125 C 51.335938 -91.113281 51.734375 -92.382812 52.609375 -92.9375 C 53.484375 -93.5 54.65625 -93.738281 56.125 -93.65625 C 57.601562 -93.582031 59.097656 -93.503906 60.609375 -93.421875 C 62.046875 -93.421875 63.398438 -93.519531 64.671875 -93.71875 C 65.941406 -93.914062 66.972656 -93.816406 67.765625 -93.421875 C 68.566406 -93.023438 68.96875 -91.832031 68.96875 -89.84375 C 68.96875 -82.519531 68.96875 -75.195312 68.96875 -67.875 C 68.96875 -60.5625 68.96875 -53.25 68.96875 -45.9375 C 68.882812 -39.175781 69.039062 -32.394531 69.4375 -25.59375 C 69.832031 -18.789062 69.710938 -12.007812 69.078125 -5.25 C 68.921875 -3.5 68.363281 -2.363281 67.40625 -1.84375 C 66.457031 -1.332031 65.304688 -1.175781 63.953125 -1.375 C 62.597656 -1.570312 61.203125 -1.910156 59.765625 -2.390625 C 58.335938 -2.867188 57.03125 -3.1875 55.84375 -3.34375 C 52.894531 -3.738281 50.144531 -3.773438 47.59375 -3.453125 C 45.050781 -3.140625 42.390625 -2.425781 39.609375 -1.3125 C 35.160156 0.351562 30.546875 0.628906 25.765625 -0.484375 C 21.390625 -1.429688 17.332031 -3.359375 13.59375 -6.265625 C 9.863281 -9.171875 6.960938 -12.570312 4.890625 -16.46875 Z M 35.078125 -54.640625 C 32.054688 -54.640625 29.210938 -53.664062 26.546875 -51.71875 C 23.878906 -49.769531 21.707031 -47.242188 20.03125 -44.140625 C 18.363281 -41.046875 17.53125 -37.75 17.53125 -34.25 C 17.53125 -30.90625 18.347656 -27.738281 19.984375 -24.75 C 21.617188 -21.769531 23.765625 -19.34375 26.421875 -17.46875 C 29.085938 -15.601562 31.929688 -14.632812 34.953125 -14.5625 L 35.4375 -14.5625 C 39.488281 -14.5625 42.988281 -16.03125 45.9375 -18.96875 C 49.675781 -22.863281 51.546875 -27.992188 51.546875 -34.359375 C 51.546875 -40.242188 50.03125 -45.078125 47 -48.859375 C 43.976562 -52.640625 40.082031 -54.566406 35.3125 -54.640625 Z M 35.078125 -54.640625 "></path></g></g></g><g fill="#1b1b1b" fill-opacity="1"><g transform="translate(223.178874, 94.892776)"><g><path d="M 66.9375 -30.3125 C 65.976562 -29.507812 64.5625 -28.96875 62.6875 -28.6875 C 60.820312 -28.414062 58.835938 -28.28125 56.734375 -28.28125 C 54.628906 -28.28125 52.660156 -28.316406 50.828125 -28.390625 C 48.992188 -28.472656 47.601562 -28.515625 46.65625 -28.515625 C 42.519531 -28.429688 38.421875 -28.367188 34.359375 -28.328125 C 30.304688 -28.296875 26.210938 -28.28125 22.078125 -28.28125 C 20.796875 -28.28125 19.976562 -27.878906 19.625 -27.078125 C 19.269531 -26.285156 19.226562 -25.390625 19.5 -24.390625 C 19.78125 -23.398438 20.160156 -22.546875 20.640625 -21.828125 C 22.304688 -19.679688 24.390625 -17.953125 26.890625 -16.640625 C 29.398438 -15.328125 32.007812 -14.515625 34.71875 -14.203125 C 37.738281 -13.878906 40.265625 -14.296875 42.296875 -15.453125 C 44.328125 -16.609375 46.613281 -17.820312 49.15625 -19.09375 C 50.351562 -19.726562 51.171875 -20.125 51.609375 -20.28125 C 52.046875 -20.4375 52.78125 -20.078125 53.8125 -19.203125 C 54.925781 -18.328125 55.976562 -17.132812 56.96875 -15.625 C 57.96875 -14.113281 58.941406 -12.800781 59.890625 -11.6875 C 60.929688 -10.34375 60.894531 -9.070312 59.78125 -7.875 C 58.664062 -6.675781 56.953125 -5.582031 54.640625 -4.59375 C 52.335938 -3.601562 49.832031 -2.75 47.125 -2.03125 C 44.425781 -1.3125 41.984375 -0.753906 39.796875 -0.359375 C 37.609375 0.0351562 36.113281 0.234375 35.3125 0.234375 C 29.988281 0.234375 25.078125 -0.816406 20.578125 -2.921875 C 16.085938 -5.023438 12.25 -7.882812 9.0625 -11.5 C 5.882812 -15.125 3.5 -19.203125 1.90625 -23.734375 C 0.3125 -28.273438 -0.304688 -33.03125 0.046875 -38 C 0.410156 -42.96875 1.945312 -47.800781 4.65625 -52.5 C 6.71875 -56.15625 9.476562 -59.253906 12.9375 -61.796875 C 16.40625 -64.347656 20.222656 -66.238281 24.390625 -67.46875 C 28.566406 -68.707031 32.84375 -69.265625 37.21875 -69.140625 C 41.59375 -69.023438 45.75 -68.148438 49.6875 -66.515625 C 53.625 -64.890625 57.066406 -62.441406 60.015625 -59.171875 C 61.367188 -57.660156 62.660156 -55.769531 63.890625 -53.5 C 65.117188 -51.238281 66.171875 -48.796875 67.046875 -46.171875 C 67.921875 -43.546875 68.457031 -40.976562 68.65625 -38.46875 C 68.863281 -35.96875 68.609375 -33.6875 67.890625 -31.625 C 67.734375 -31.144531 67.414062 -30.707031 66.9375 -30.3125 Z M 48.921875 -42.71875 C 49.160156 -43.269531 49.238281 -43.863281 49.15625 -44.5 C 49.070312 -45.457031 48.632812 -46.375 47.84375 -47.25 C 45.695312 -50.269531 42.910156 -52.492188 39.484375 -53.921875 C 36.066406 -55.359375 32.570312 -55.28125 29 -53.6875 C 27.40625 -52.96875 25.910156 -52.050781 24.515625 -50.9375 C 23.128906 -49.832031 21.835938 -48.640625 20.640625 -47.359375 C 20.316406 -47.046875 19.992188 -46.691406 19.671875 -46.296875 C 19.359375 -45.898438 19.125 -45.460938 18.96875 -44.984375 C 18.65625 -44.023438 18.816406 -43.144531 19.453125 -42.34375 C 20.085938 -41.550781 20.878906 -41.15625 21.828125 -41.15625 L 46.171875 -41.15625 C 47.523438 -41.15625 48.441406 -41.675781 48.921875 -42.71875 Z M 48.921875 -42.71875 "></path></g></g></g><g fill="#1b1b1b" fill-opacity="1"><g transform="translate(292.133547, 94.892776)"><g><path d="M 17.78125 -1.671875 C 17.21875 -0.953125 16.421875 -0.550781 15.390625 -0.46875 C 14.359375 -0.394531 13.285156 -0.28125 12.171875 -0.125 C 11.140625 -0.0390625 9.925781 0.0351562 8.53125 0.109375 C 7.132812 0.191406 5.820312 0.0546875 4.59375 -0.296875 C 3.363281 -0.648438 2.429688 -1.382812 1.796875 -2.5 C 0.835938 -4.25 0.273438 -6.175781 0.109375 -8.28125 C -0.046875 -10.394531 -0.00390625 -12.546875 0.234375 -14.734375 C 0.472656 -16.921875 0.59375 -18.96875 0.59375 -20.875 C 0.675781 -24.613281 0.734375 -28.332031 0.765625 -32.03125 C 0.804688 -35.726562 0.867188 -39.445312 0.953125 -43.1875 C 1.035156 -50.582031 1.054688 -58 1.015625 -65.4375 C 0.972656 -72.875 0.875 -80.289062 0.71875 -87.6875 C 0.71875 -89.757812 1.15625 -91.253906 2.03125 -92.171875 C 2.90625 -93.085938 4.054688 -93.625 5.484375 -93.78125 C 6.921875 -93.9375 8.472656 -93.894531 10.140625 -93.65625 C 11.804688 -93.414062 13.398438 -93.21875 14.921875 -93.0625 C 16.585938 -92.90625 17.675781 -92.007812 18.1875 -90.375 C 18.707031 -88.75 18.945312 -87 18.90625 -85.125 C 18.863281 -83.257812 18.804688 -81.769531 18.734375 -80.65625 C 18.578125 -77 18.476562 -73.300781 18.4375 -69.5625 C 18.394531 -65.820312 18.375 -62.082031 18.375 -58.34375 C 18.375 -49.28125 18.375 -40.210938 18.375 -31.140625 C 18.375 -22.066406 18.375 -13 18.375 -3.9375 C 18.375 -2.976562 18.175781 -2.222656 17.78125 -1.671875 Z M 17.78125 -1.671875 "></path></g></g></g><g fill="#1b1b1b" fill-opacity="1"><g transform="translate(311.339439, 94.892776)"><g><path d="M 17.78125 -1.671875 C 17.21875 -0.953125 16.421875 -0.550781 15.390625 -0.46875 C 14.359375 -0.394531 13.285156 -0.28125 12.171875 -0.125 C 11.140625 -0.0390625 9.925781 0.0351562 8.53125 0.109375 C 7.132812 0.191406 5.820312 0.0546875 4.59375 -0.296875 C 3.363281 -0.648438 2.429688 -1.382812 1.796875 -2.5 C 0.835938 -4.25 0.273438 -6.175781 0.109375 -8.28125 C -0.046875 -10.394531 -0.00390625 -12.546875 0.234375 -14.734375 C 0.472656 -16.921875 0.59375 -18.96875 0.59375 -20.875 C 0.675781 -24.613281 0.734375 -28.332031 0.765625 -32.03125 C 0.804688 -35.726562 0.867188 -39.445312 0.953125 -43.1875 C 1.035156 -50.582031 1.054688 -58 1.015625 -65.4375 C 0.972656 -72.875 0.875 -80.289062 0.71875 -87.6875 C 0.71875 -89.757812 1.15625 -91.253906 2.03125 -92.171875 C 2.90625 -93.085938 4.054688 -93.625 5.484375 -93.78125 C 6.921875 -93.9375 8.472656 -93.894531 10.140625 -93.65625 C 11.804688 -93.414062 13.398438 -93.21875 14.921875 -93.0625 C 16.585938 -92.90625 17.675781 -92.007812 18.1875 -90.375 C 18.707031 -88.75 18.945312 -87 18.90625 -85.125 C 18.863281 -83.257812 18.804688 -81.769531 18.734375 -80.65625 C 18.578125 -77 18.476562 -73.300781 18.4375 -69.5625 C 18.394531 -65.820312 18.375 -62.082031 18.375 -58.34375 C 18.375 -49.28125 18.375 -40.210938 18.375 -31.140625 C 18.375 -22.066406 18.375 -13 18.375 -3.9375 C 18.375 -2.976562 18.175781 -2.222656 17.78125 -1.671875 Z M 17.78125 -1.671875 "></path></g></g></g><g fill="#1b1b1b" fill-opacity="1"><g transform="translate(330.545331, 94.892776)"><g><path d="M 4.53125 -75.171875 C 2.78125 -76.285156 1.503906 -77.851562 0.703125 -79.875 C -0.0859375 -81.90625 -0.125 -84.113281 0.59375 -86.5 C 1.945312 -91.195312 5.128906 -93.625 10.140625 -93.78125 L 10.375 -93.78125 C 12.84375 -93.78125 14.910156 -93.125 16.578125 -91.8125 C 18.253906 -90.5 19.367188 -88.6875 19.921875 -86.375 C 20.640625 -83.519531 20.363281 -80.894531 19.09375 -78.5 C 17.820312 -76.113281 15.671875 -74.566406 12.640625 -73.859375 C 11.128906 -73.535156 9.675781 -73.492188 8.28125 -73.734375 C 6.894531 -73.972656 5.644531 -74.453125 4.53125 -75.171875 Z M 2.859375 -63.234375 C 3.972656 -63.953125 5.566406 -64.269531 7.640625 -64.1875 C 8.828125 -64.1875 10.132812 -64.222656 11.5625 -64.296875 C 13 -64.378906 14.332031 -64.242188 15.5625 -63.890625 C 16.800781 -63.535156 17.617188 -62.722656 18.015625 -61.453125 C 18.734375 -59.460938 18.972656 -57.050781 18.734375 -54.21875 C 18.492188 -51.394531 18.375 -48.953125 18.375 -46.890625 C 18.457031 -42.035156 18.5 -37.222656 18.5 -32.453125 C 18.5 -27.679688 18.535156 -22.867188 18.609375 -18.015625 C 18.609375 -17.222656 18.707031 -15.890625 18.90625 -14.015625 C 19.101562 -12.148438 19.222656 -10.140625 19.265625 -7.984375 C 19.304688 -5.835938 19.085938 -4.007812 18.609375 -2.5 C 18.128906 -0.988281 17.175781 -0.195312 15.75 -0.125 C 13.914062 -0.0390625 12.003906 0.0195312 10.015625 0.0625 C 8.035156 0.101562 6.128906 0.00390625 4.296875 -0.234375 C 3.023438 -0.398438 2.148438 -1.097656 1.671875 -2.328125 C 1.191406 -3.554688 0.929688 -5.046875 0.890625 -6.796875 C 0.847656 -8.546875 0.90625 -10.21875 1.0625 -11.8125 C 1.226562 -13.40625 1.3125 -14.640625 1.3125 -15.515625 C 1.226562 -18.773438 1.164062 -22.054688 1.125 -25.359375 C 1.09375 -28.660156 1.078125 -31.941406 1.078125 -35.203125 C 0.992188 -37.984375 0.953125 -40.765625 0.953125 -43.546875 C 0.953125 -46.328125 0.910156 -49.070312 0.828125 -51.78125 C 0.828125 -54.082031 0.785156 -56.304688 0.703125 -58.453125 C 0.628906 -60.609375 1.347656 -62.203125 2.859375 -63.234375 Z M 2.859375 -63.234375 "></path></g></g></g></g></g><g clip-path="url(#df88ef691d)"><g clip-path="url(#d9b8eca4ef)"><g transform="matrix(1, 0, 0, 1, 357, 109)"><g clip-path="url(#685b6f6063)"><g clip-path="url(#6bb8da75db)"><g clip-path="url(#ee4c96947f)"><path fill="#1b1b1b" d="M 0.4375 0.582031 L 9.996094 0.582031 L 9.996094 10.144531 L 0.4375 10.144531 Z M 0.4375 0.582031 " fill-opacity="1" fill-rule="nonzero"></path></g></g></g></g></g></g></svg></svg></g></g></svg>